<?xml version="1.0" encoding="utf-8"?>
<!-- Generator: Adobe Illustrator 15.0.0, SVG Export Plug-In . SVG Version: 6.00 Build 0)  -->
<!DOCTYPE svg PUBLIC "-//W3C//DTD SVG 1.1//EN" "http://www.w3.org/Graphics/SVG/1.1/DTD/svg11.dtd">
<svg version="1.1" id="Capa_1" xmlns="http://www.w3.org/2000/svg" xmlns:xlink="http://www.w3.org/1999/xlink" x="0px" y="0px"
	 width="523.436px" height="321px" viewBox="14.435 94.436 523.436 321" enable-background="new 14.435 94.436 523.436 321"
	 xml:space="preserve">
<g opacity="0.6">
	<path fill="#fff" d="M36.289,270.609v127.567c0,6.7,5.402,12.146,12.146,12.146h241.187c6.699,0,12.146-5.49,12.146-12.146V270.609
		c0-6.699-5.402-12.146-12.146-12.146H48.478C41.778,258.465,36.289,263.91,36.289,270.609z M261.353,271.939
		c3.372,0,6.095,2.724,6.095,6.095v112.719c0,3.371-2.724,6.095-6.095,6.095H57.73c-3.372,0-6.096-2.724-6.096-6.095V278.034
		c0-3.371,2.724-6.095,6.096-6.095H261.353z"/>
</g>
<g opacity="0.9">
	<path fill="#fff" d="M498.877,97.98h-150.09c-7.882,0-14.291,6.356-14.291,14.29v283.765c0,7.881,6.46,14.289,14.291,14.289h150.089
		c7.882,0,14.288-6.356,14.288-14.289V112.32C513.165,104.438,506.759,97.98,498.877,97.98z M497.31,362.773
		c0,3.967-3.203,7.172-7.17,7.172H357.523c-3.966,0-7.171-3.205-7.171-7.172V123.206c0-3.966,3.205-7.17,7.171-7.17H490.14
		c3.967,0,7.17,3.204,7.17,7.17V362.773L497.31,362.773z"/>
</g>
<g>
	<path fill="#fff" d="M274.997,177.011c-30.048,0-53.42,12.66-66.775,46.048c20.032-16.694,52.374-23.42,66.775-21.133v21.827
		l40.066-33.387l-40.066-33.388V177.011z"/>
</g>
</svg>
